<svg xmlns="http://www.w3.org/2000/svg" xmlns:xlink="http://www.w3.org/1999/xlink" width="1931.729" height="1035.068" viewBox="0 0 1931.729 1035.068">
  <defs>
    <clipPath id="clip-path">
      <rect x="-39" y="108" width="656.637" height="559.637" fill="none"/>
    </clipPath>
    <clipPath id="clip-path-2">
      <rect x="454" width="495.903" height="613.903" fill="none"/>
    </clipPath>
    <clipPath id="clip-path-3">
      <rect x="-41" y="148" width="405.974" height="244.974" fill="none"/>
    </clipPath>
  </defs>
  <rect id="Rectangle_9" data-name="Rectangle 9" width="1920" height="1034" transform="translate(0 0.487)" fill="#fbfbfb"/>
  <g id="Scroll_Group_2" data-name="Scroll Group 2" transform="translate(1314.092 366.859)" clip-path="url(#clip-path)" style="isolation: isolate">
    <path id="Path_3" data-name="Path 3" d="M0,0H917.948V917.948H0V0Z" transform="matrix(0.891, -0.454, 0.454, 0.891, 0, 416.74)" fill="#fe4900"/>
  </g>
  <path id="Path_11" data-name="Path 11" d="M0,0H130.546V130.546H0V0Z" transform="translate(942.021 637.21) rotate(19)" fill="#fe4900"/>
  <g id="Scroll_Group_1" data-name="Scroll Group 1" transform="translate(-453.951 420.536)" clip-path="url(#clip-path-2)" style="isolation: isolate">
    <rect id="Rectangle_13" data-name="Rectangle 13" width="654" height="654" transform="translate(365.712) rotate(34)" fill="#04f"/>
  </g>
  <g id="Scroll_Group_3" data-name="Scroll Group 3" transform="translate(960 -148)" clip-path="url(#clip-path-3)" style="isolation: isolate">
    <rect id="Rectangle_14" data-name="Rectangle 14" width="298" height="298" transform="matrix(0.966, 0.259, -0.259, 0.966, 77.128, 0)" fill="#00dc92"/>
  </g>
  <rect id="Rectangle_28" data-name="Rectangle 28" width="128" height="128" transform="matrix(0.809, -0.588, 0.588, 0.809, 472.092, 370.328)" fill="#00dc92"/>
  <g id="Group_4" data-name="Group 4" transform="translate(20 6.396)">
    <g id="Alphbates" transform="translate(-12.842 -5.909)">
      <text id="ا" transform="matrix(0.819, -0.574, 0.574, 0.819, 1669.894, 228.65)" fill="#434343" font-size="116" font-family="'MBLateefiSK2\.0', 'MB Lateefi SK \32 \.0'"><tspan x="-26.904" y="0">ا</tspan></text>
      <text id="ڃ" transform="matrix(0.875, 0.485, -0.485, 0.875, 1412.667, 196.053)" fill="#434343" font-size="116" font-family="'MBLateefiSK2\.0', 'MB Lateefi SK \32 \.0'"><tspan x="-69.781" y="0">ڃ</tspan></text>
      <text id="ح" transform="translate(1456.24 459.226) rotate(-43)" fill="#434343" font-size="116" font-family="'MBLateefiSK2\.0', 'MB Lateefi SK \32 \.0'"><tspan x="-69.781" y="0">ح</tspan></text>
      <text id="ڄ" transform="matrix(0.848, 0.53, -0.53, 0.848, 265.361, 300.978)" fill="#434343" font-size="116" font-family="'MBLateefiSK2\.0', 'MB Lateefi SK \32 \.0'"><tspan x="-69.781" y="0">ڄ</tspan></text>
      <text id="ٿ" transform="matrix(0.875, -0.485, 0.485, 0.875, 283.3, 488.756)" fill="#434343" font-size="116" font-family="'MBLateefiSK2\.0', 'MB Lateefi SK \32 \.0'"><tspan x="-84.904" y="0">ٿ</tspan></text>
      <text id="چ" transform="translate(1788.673 362.674) rotate(25)" fill="#434343" font-size="116" font-family="'MBLateefiSK2\.0', 'MB Lateefi SK \32 \.0'"><tspan x="-69.781" y="0">چ</tspan></text>
      <text id="ض" transform="translate(946.058 211.242) rotate(-40)" fill="#434343" font-size="116" font-family="'MBLateefiSK2\.0', 'MB Lateefi SK \32 \.0'"><tspan x="-122.91" y="0">ض</tspan></text>
      <text id="ص" transform="matrix(0.799, -0.602, 0.602, 0.799, 628.417, 181.561)" fill="#434343" font-size="116" font-family="'MBLateefiSK2\.0', 'MB Lateefi SK \32 \.0'"><tspan x="-117.303" y="0">ص</tspan></text>
      <text id="ج" transform="matrix(0.809, -0.588, 0.588, 0.809, 1186.085, 121.512)" fill="#434343" font-size="116" font-family="'MBLateefiSK2\.0', 'MB Lateefi SK \32 \.0'"><tspan x="-69.781" y="0">ج</tspan></text>
      <text id="پ" transform="matrix(0.839, -0.545, 0.545, 0.839, 528.839, 717.649)" fill="#434343" font-size="116" font-family="'MBLateefiSK2\.0', 'MB Lateefi SK \32 \.0'"><tspan x="-82.299" y="0">پ</tspan></text>
      <text id="ڍ" transform="matrix(0.799, 0.602, -0.602, 0.799, 1033.459, 783.442)" fill="#434343" font-size="116" font-family="'MBLateefiSK2\.0', 'MB Lateefi SK \32 \.0'"><tspan x="-39.818" y="0">ڍ</tspan></text>
      <text id="ذ" transform="matrix(0.883, 0.469, -0.469, 0.883, 797.416, 578.87)" fill="#434343" font-size="116" font-family="'MBLateefiSK2\.0', 'MB Lateefi SK \32 \.0'"><tspan x="-36.42" y="0">ذ</tspan></text>
      <text id="ڙ" transform="translate(1169.686 388.987) rotate(40)" fill="#434343" font-size="116" font-family="'MBLateefiSK2\.0', 'MB Lateefi SK \32 \.0'"><tspan x="-56.357" y="0">ڙ</tspan></text>
      <text id="ث" transform="translate(1571.426 370.042) rotate(41)" fill="#434343" font-size="116" font-family="'MBLateefiSK2\.0', 'MB Lateefi SK \32 \.0'"><tspan x="-92.607" y="0">ث</tspan></text>
      <text id="ڇ" transform="translate(1294.258 793.182) rotate(-40)" fill="#434343" font-size="116" font-family="'MBLateefiSK2\.0', 'MB Lateefi SK \32 \.0'"><tspan x="-69.781" y="0">ڇ</tspan></text>
      <text id="خ" transform="translate(1744.024 688.663) rotate(45)" fill="#434343" font-size="116" font-family="'MBLateefiSK2\.0', 'MB Lateefi SK \32 \.0'"><tspan x="-69.781" y="0">خ</tspan></text>
      <text id="ٻ" transform="matrix(0.875, 0.485, -0.485, 0.875, 1550.789, 873.353)" fill="#434343" font-size="116" font-family="'MBLateefiSK2\.0', 'MB Lateefi SK \32 \.0'"><tspan x="-84.225" y="0">ٻ</tspan></text>
      <text id="غ" transform="matrix(0.695, 0.719, -0.719, 0.695, 745.062, 908.039)" fill="#434343" font-size="116" font-family="'MBLateefiSK2\.0', 'MB Lateefi SK \32 \.0'"><tspan x="-70.631" y="0">غ</tspan></text>
      <text id="ث-2" data-name="ث" transform="translate(272.151 853.908) rotate(-43)" fill="#434343" font-size="116" font-family="'MBLateefiSK2\.0', 'MB Lateefi SK \32 \.0'"><tspan x="-92.607" y="0">ث</tspan></text>
      <text id="ڄ-2" data-name="ڄ" transform="matrix(0.875, -0.485, 0.485, 0.875, 1021.24, 880.023)" fill="#434343" font-size="116" font-family="'MBLateefiSK2\.0', 'MB Lateefi SK \32 \.0'"><tspan x="-69.781" y="0">ڄ</tspan></text>
      <text id="ت" transform="matrix(0.875, 0.485, -0.485, 0.875, 182.852, 726.043)" fill="#434343" font-size="116" font-family="'MBLateefiSK2\.0', 'MB Lateefi SK \32 \.0'"><tspan x="-82.639" y="0">ت</tspan></text>
      <text id="ش" transform="translate(457.058 962.824) rotate(41)" fill="#434343" font-size="116" font-family="'MBLateefiSK2\.0', 'MB Lateefi SK \32 \.0'"><tspan x="-95.949" y="0">ش</tspan></text>
      <text id="ص-2" data-name="ص" transform="matrix(0.809, 0.588, -0.588, 0.809, 352.742, 738.134)" fill="#434343" font-size="116" font-family="'MBLateefiSK2\.0', 'MB Lateefi SK \32 \.0'"><tspan x="-117.303" y="0">ص</tspan></text>
      <text id="جهہ" transform="translate(842.498 661.949) rotate(-22)" fill="#434343" font-size="116" font-family="'MBLateefiSK2\.0', 'MB Lateefi SK \32 \.0'"><tspan x="-131.293" y="0">جهہ</tspan></text>
      <text id="ڦ" transform="matrix(0.899, 0.438, -0.438, 0.899, 1213.17, 676.855)" fill="#434343" font-size="116" font-family="'MBLateefiSK2\.0', 'MB Lateefi SK \32 \.0'"><tspan x="-83.828" y="0">ڦ</tspan></text>
      <text id="ف" transform="matrix(0.891, 0.454, -0.454, 0.891, 1669.818, 520.043)" fill="#434343" font-size="116" font-family="'MBLateefiSK2\.0', 'MB Lateefi SK \32 \.0'"><tspan x="-94.986" y="0">ف</tspan></text>
      <text id="ط" transform="translate(909.348 807.935) rotate(31)" fill="#434343" font-size="116" font-family="'MBLateefiSK2\.0', 'MB Lateefi SK \32 \.0'"><tspan x="-80.713" y="0">ط</tspan></text>
      <text id="ع" transform="translate(1811.842 857)" fill="#434343" font-size="116" font-family="'MBLateefiSK2\.0', 'MB Lateefi SK \32 \.0'"><tspan x="-70.631" y="0">ع</tspan></text>
      <text id="ڱ" transform="translate(627.479 399.421) rotate(-43)" fill="#434343" font-size="116" font-family="'MBLateefiSK2\.0', 'MB Lateefi SK \32 \.0'"><tspan x="-97.705" y="0">ڱ</tspan></text>
      <text id="ز" transform="translate(404.921 320.904) rotate(-25)" fill="#434343" font-size="116" font-family="'MBLateefiSK2\.0', 'MB Lateefi SK \32 \.0'"><tspan x="-59.643" y="0">ز</tspan></text>
      <text id="ٽ" transform="matrix(0.799, 0.602, -0.602, 0.799, 113.23, 442.429)" fill="#434343" font-size="116" font-family="'MBLateefiSK2\.0', 'MB Lateefi SK \32 \.0'"><tspan x="-82.299" y="0">ٽ</tspan></text>
      <text id="ک" transform="translate(109.495 951.721) rotate(34)" fill="#434343" font-size="116" font-family="'MBLateefiSK2\.0', 'MB Lateefi SK \32 \.0'"><tspan x="-96.742" y="0">ک</tspan></text>
      <text id="گ" transform="translate(1221.228 932.496) rotate(-39)" fill="#434343" font-size="116" font-family="'MBLateefiSK2\.0', 'MB Lateefi SK \32 \.0'"><tspan x="-97.365" y="0">گ</tspan></text>
      <text id="ظ" transform="translate(1523.031 138.175) rotate(42)" fill="#434343" font-size="116" font-family="'MBLateefiSK2\.0', 'MB Lateefi SK \32 \.0'"><tspan x="-80.713" y="0">ظ</tspan></text>
      <text id="ل" transform="translate(148.18 101.233) rotate(-43)" fill="#434343" font-size="116" font-family="'MBLateefiSK2\.0', 'MB Lateefi SK \32 \.0'"><tspan x="-63.041" y="0">ل</tspan></text>
      <text id="س" transform="translate(449.909 104.998) rotate(-31)" fill="#434343" font-size="116" font-family="'MBLateefiSK2\.0', 'MB Lateefi SK \32 \.0'"><tspan x="-106.654" y="0">س</tspan></text>
      <text id="ڳ" transform="translate(1857.983 162.582) rotate(-40)" fill="#434343" font-size="116" font-family="'MBLateefiSK2\.0', 'MB Lateefi SK \32 \.0'"><tspan x="-98.102" y="0">ڳ</tspan></text>
      <text id="گهہ" transform="matrix(0.799, 0.602, -0.602, 0.799, 1466.404, 721.459)" fill="#434343" font-size="116" font-family="'MBLateefiSK2\.0', 'MB Lateefi SK \32 \.0'"><tspan x="-124.439" y="0">گهہ</tspan></text>
      <text id="م" transform="matrix(0.921, -0.391, 0.391, 0.921, 1880.977, 665.201)" fill="#434343" font-size="116" font-family="'MBLateefiSK2\.0', 'MB Lateefi SK \32 \.0'"><tspan x="-69.555" y="0">م</tspan></text>
      <text id="ب" transform="matrix(0.883, 0.469, -0.469, 0.883, 1851.724, 504.17)" fill="#434343" font-size="116" font-family="'MBLateefiSK2\.0', 'MB Lateefi SK \32 \.0'"><tspan x="-82.299" y="0">ب</tspan></text>
      <text id="د" transform="matrix(0.848, -0.53, 0.53, 0.848, 1019.269, 595.96)" fill="#434343" font-size="116" font-family="'MBLateefiSK2\.0', 'MB Lateefi SK \32 \.0'"><tspan x="-36.25" y="0">د</tspan></text>
      <text id="ڌ" transform="matrix(0.848, 0.53, -0.53, 0.848, 964.64, 423.062)" fill="#434343" font-size="116" font-family="'MBLateefiSK2\.0', 'MB Lateefi SK \32 \.0'"><tspan x="-39.988" y="0">ڌ</tspan></text>
      <text id="ق" transform="translate(772.434 217.8) rotate(-43)" fill="#434343" font-size="116" font-family="'MBLateefiSK2\.0', 'MB Lateefi SK \32 \.0'"><tspan x="-75.672" y="0">ق</tspan></text>
      <text id="ر" transform="translate(1077.842 203)" fill="#434343" font-size="116" font-family="'MBLateefiSK2\.0', 'MB Lateefi SK \32 \.0'"><tspan x="-50.807" y="0">ر</tspan></text>
      <text id="ڪ" transform="translate(628.299 796.991) rotate(-45)" fill="#434343" font-size="116" font-family="'MBLateefiSK2\.0', 'MB Lateefi SK \32 \.0'"><tspan x="-110.393" y="0">ڪ</tspan></text>
      <text id="ڀ" transform="matrix(0.914, 0.407, -0.407, 0.914, 1409.762, 949.464)" fill="#434343" font-size="116" font-family="'MBLateefiSK2\.0', 'MB Lateefi SK \32 \.0'"><tspan x="-84.904" y="0">ڀ</tspan></text>
      <text id="و" transform="translate(1676.481 932.288) rotate(-40)" fill="#434343" font-size="116" font-family="'MBLateefiSK2\.0', 'MB Lateefi SK \32 \.0'"><tspan x="-51.316" y="0">و</tspan></text>
      <text id="ن" transform="translate(444.842 475)" fill="#434343" font-size="116" font-family="'MBLateefiSK2\.0', 'MB Lateefi SK \32 \.0'"><tspan x="-60.662" y="0">ن</tspan></text>
      <text id="ڏ" transform="translate(1282.842 292)" fill="#434343" font-size="116" font-family="'MBLateefiSK2\.0', 'MB Lateefi SK \32 \.0'"><tspan x="-43.217" y="0">ڏ</tspan></text>
      <text id="ڊ" transform="translate(118.842 258)" fill="#434343" font-size="116" font-family="'MBLateefiSK2\.0', 'MB Lateefi SK \32 \.0'"><tspan x="-36.42" y="0">ڊ</tspan></text>
      <text id="ي" transform="translate(1208.842 736)" fill="#434343" font-size="116" font-family="'MBLateefiSK2\.0', 'MB Lateefi SK \32 \.0'"><tspan x="-73.746" y="0">ي</tspan></text>
      <text id="ڻ" transform="translate(893.842 953)" fill="#434343" font-size="116" font-family="'MBLateefiSK2\.0', 'MB Lateefi SK \32 \.0'"><tspan x="-57.264" y="0">ڻ</tspan></text>
      <text id="ہ" transform="translate(1658.842 816)" fill="#434343" font-size="116" font-family="'MBLateefiSK2\.0', 'MB Lateefi SK \32 \.0'"><tspan x="-30.699" y="0">ہ</tspan></text>
    </g>
  </g>
</svg>
