<?xml version="1.0" encoding="utf-8"?>
<!-- Generator: Adobe Illustrator 24.3.0, SVG Export Plug-In . SVG Version: 6.00 Build 0)  -->
<svg version="1.1" id="Layer_1" xmlns="http://www.w3.org/2000/svg" xmlns:xlink="http://www.w3.org/1999/xlink" x="0px" y="0px"
	 viewBox="0 0 157 55" style="enable-background:new 0 0 157 55;" xml:space="preserve">
<style type="text/css">
	.st0{fill:#FFFFFF;}
	.st1{fill:#FE4900;}
	.st2{fill:#3A3A3A;}
</style>
<g>
	<g id="Group_2_2_" transform="translate(-145.478 -145.823)">
		<path id="Path_1_2_" class="st1" d="M264.36,167.24l-3.38,3.38l-7.21-7.21l-3.83,3.83l7.21,7.21l3.83,3.83l3.83-3.83l3.38-3.38
			l2.94-2.94l0.89-0.89l-8.55-8.55l-3.83,3.83L264.36,167.24z"/>
		
			<rect id="Rectangle_1_2_" x="247.83" y="180.78" transform="matrix(0.7071 -0.7071 0.7071 0.7071 -52.2533 240.8309)" class="st1" width="33.5" height="5.42"/>
		<path id="Path_2_2_" class="st1" d="M237.29,167.24l13.53,13.53l-2.49,2.49l-13.53-13.53l-3.83,3.83l13.53,13.53l3.83,3.83
			l3.83-3.83l2.49-2.49l3.83-3.83l-3.83-3.83l-9.7-9.7l13.53-13.53l-3.83-3.83L237.29,167.24z"/>
	</g>
	<g>
		<path class="st2" d="M47.96,33.04v-3.59c0-0.91-0.12-1.62-0.36-2.14c-0.24-0.52-0.56-0.91-0.96-1.17
			c-0.4-0.26-0.88-0.43-1.42-0.49c-0.54-0.06-1.12-0.09-1.72-0.09h-4.61v-3.82l7.33-11.64l3.55,2.38l-5.75,8.88h0.38
			c1.01,0,1.98,0.11,2.93,0.34c0.94,0.23,1.78,0.63,2.51,1.21c0.73,0.58,1.31,1.37,1.74,2.38c0.43,1.01,0.64,2.28,0.64,3.82v8.32
			H29.51c-0.98,0-1.81-0.15-2.49-0.45c-0.68-0.3-1.24-0.7-1.66-1.21c-0.43-0.5-0.74-1.1-0.93-1.78c-0.19-0.68-0.28-1.39-0.28-2.12
			v-6.39h4.31v5.63c0,0.43,0.04,0.78,0.11,1.04c0.08,0.27,0.17,0.46,0.28,0.59c0.11,0.13,0.25,0.21,0.42,0.25
			c0.16,0.04,0.32,0.06,0.47,0.06H47.96z"/>
		<path class="st2" d="M57.71,10.36h4.31v22.68h2.57c0.4,0,0.68,0.1,0.83,0.3c0.15,0.2,0.23,0.44,0.23,0.72v2.31
			c0,0.2-0.09,0.43-0.26,0.68c-0.18,0.25-0.44,0.38-0.79,0.38h-6.88V10.36z"/>
		<path class="st2" d="M64.36,37.42c-0.35,0-0.6-0.1-0.76-0.3c-0.15-0.2-0.23-0.43-0.23-0.68v-2.23c0-0.28,0.08-0.54,0.25-0.79
			c0.16-0.25,0.41-0.38,0.74-0.38h5.18V22.38h4.31v15.05H64.36z M68.82,42.17c0-0.61,0.22-1.12,0.66-1.54
			c0.44-0.42,0.98-0.63,1.63-0.63c0.62,0,1.16,0.21,1.59,0.63c0.44,0.42,0.66,0.93,0.66,1.54c0,0.64-0.22,1.16-0.66,1.58
			c-0.44,0.42-0.97,0.63-1.59,0.63c-0.65,0-1.2-0.21-1.63-0.63C69.04,43.33,68.82,42.8,68.82,42.17z"/>
	</g>
</g>
</svg>
