<?xml version="1.0" encoding="utf-8"?>
<!-- Generator: Adobe Illustrator 27.4.0, SVG Export Plug-In . SVG Version: 6.00 Build 0)  -->
<svg version="1.1" id="Layer_1" xmlns="http://www.w3.org/2000/svg" xmlns:xlink="http://www.w3.org/1999/xlink" x="0px" y="0px"
	 viewBox="0 0 289.6 292.3" style="enable-background:new 0 0 289.6 292.3;" xml:space="preserve">
<style type="text/css">
	.st0{fill:#BD2029;}
</style>
<path class="st0" d="M280.08,167.59c-0.26,0.31-0.5,0.64-0.77,0.94c-4.24,4.74-9.48,7.11-15.7,7.11h-27.58h-0.85h-9.55
	c-5.52,0-10.15-1.98-13.9-5.94c-3.75-3.96-5.62-8.56-5.62-13.79V83.13h19.73v62.38c0,3.11,1.02,5.59,3.08,7.43
	c2.05,1.84,4.42,2.76,7.11,2.76h21.85c5.23,0,7.85-1.41,7.85-4.24c0-1.98-0.92-4.74-2.76-8.28l-8.49-16.98h22.49l1.59,3.59
	c-0.72-5.99-0.74-12.07-1.08-18.1c-0.02-0.27-0.28-0.64-0.53-0.76c-4.2-2.03-2.72-5.36-1.58-8.61c-3.86-1.79-5.5-4.11-3.97-8.45
	c0.52-1.49-1.01-4.94-2.47-5.63c-3.22-1.5-4.75-3.3-4.73-6.85c0-1.09-1.24-2.17-1.86-3.29c-2.39-4.3-4.9-8.54-7.09-12.94
	c-2.28-4.57-3.88-9.61-9.76-10.95c-0.66-0.15-1.74-0.9-1.71-1.3c0.5-5.81-4.3-6.11-7.83-7.44c-6.89-2.59-12.62-6.29-15.34-13.55
	c-0.3-0.79-1.03-1.94-1.65-2.01c-6.41-0.65-10.48-8.92-18.14-5.59c-0.44,0.19-1.42-0.62-2.02-1.11c-4.52-3.7-8.36-8.7-15.25-7.83
	c-0.35,0.04-0.87-0.44-1.14-0.81c-2.05-2.71-4.47-1.85-7.32-1.43c-3.77,0.55-8.16,0.91-11.49-0.52c-5.97-2.55-11.52-4.41-17.84-1.68
	c-1.73,0.75-3.68,1.26-5.56,1.37c-10.64,0.58-21.3,0.96-31.94,1.54c-0.91,0.05-2.25,0.87-2.57,1.65c-1.44,3.63-3.97,3.72-7.39,3.39
	c-5.65-0.54-11.21,1.76-14.49,5.77c-4.2,5.12-9.12,7.78-15.17,8.94c-3.32,0.64-6.05,1.26-7.11,5.19c-0.39,1.44-2.44,2.96-4.03,3.46
	c-4.35,1.38-7.93,2.99-6.11,8.99c-4.49,0.02-7.9,0.91-8.28,5.72c-0.3,3.78-1.82,5.93-6.27,6.1c-1.46,0.06-3.03,3.51-4.06,5.65
	c-0.56,1.16-0.1,2.81-0.1,4.12c-2.13,0.83-3.88,1.51-6.12,2.38c3.49,7.16-1.43,10.25-6.09,12.8c0.25,2.66,1.01,4.92,0.53,6.87
	c-0.7,2.82-2.3,5.41-3.51,8.1c-0.71,2.16-2.44,3.98-3.12,6.13c-1.19,3.77-1.73,7.75-2.57,11.63c-0.76,3.52-1.96,7.01-2.22,10.56
	c-0.07,0.95,0.02,1.95,0.16,2.96c11.16,8.89,24.82,16.1,40.96,21.62c18.81,6.51,38.69,9.76,59.62,9.76c17.4,0,33.52-2.19,48.38-6.58
	c12.87-3.68,19.31-7,19.31-9.97c0-2.4-2.33-4.81-7-7.21c-7.08-3.82-17.83-5.8-32.25-5.94v-19.73c21.36-0.28,37.41,3.89,48.17,12.52
	c7.64,6.23,11.46,13.02,11.46,20.37c0,12.31-10.54,21.79-31.62,28.43c-16.55,5.23-35.36,7.85-56.44,7.85
	c-37.02,0-69.6-8.47-97.78-25.37c0.43,2.25,0.54,4.54,0.03,6.53c-1.3,5.03-2.57,9.24,2.56,12.31c-0.54,2.14-0.99,3.93-1.41,5.58
	c1.66,1.35,3.02,2.46,4.07,3.32c-0.26,2.36-1.26,5.72-0.58,6.11c5.4,3.07,6.9,8.57,9.29,13.53c2.54,5.28,2.78,11.91,8.88,15.14
	c0.31,0.16,0.28,1.24,0.18,1.85c-0.44,2.65,0.64,4.2,3.14,5.11c0.73,0.26,1.62,1.34,1.65,2.07c0.24,5.9,4.39,7.33,9.06,8.15
	c3.69,0.65,5.72,2.55,5.56,6.48c-0.04,1.07,0.21,2.15,0.35,3.39c2.17,0,4.07,0,5.98,0c1.68,2.88,4.04,4.71,6.26,6.71
	c0.91,0.81,1.48,1.99,2.24,2.97c0.67,0.86,1.48,2.45,2.08,2.38c3.99-0.46,5.84,2.67,8.54,4.48c2.77,1.85,5.97,3.05,8.91,4.68
	c5.45,3.03,13.1-0.64,17.44,5.76c0.16,0.24,1.03,0.31,1.34,0.11c3.97-2.51,6.11,0.37,8.42,3.13c3.78-2.68,6.88-1.64,8.57,0.64
	c3.42,0,5.87-0.26,8.24,0.07c2.42,0.34,4.71,1.58,7.13,1.86c2.93,0.34,6,0.52,8.86-0.03c3.76-0.72,7.36-2.74,11.11-0.05
	c0.13,0.09,0.54-0.27,0.84-0.36c6.15-1.95,12.29-5.38,18.47-5.48c8.01-0.13,13.94-4.01,20.45-7.2c3.67-1.8,7.35-5.17,10.97-5.1
	c5.33,0.11,7.58-2.02,9.36-6.23c1.53-3.62,3.78-6.08,8.39-5.7c1.47,0.12,3.66-1.6,4.58-3.06c2.78-4.42,5.31-8.76,11.13-9.85
	c1.18-0.22,1.99-2.29,3.03-3.45c4.79-5.28,6.14-12.82,13.49-16.85c3.68-2.01,6.26-9.29,6.15-14.11c-0.12-5.37,1.57-8.57,4.61-12.3
	c2.1-2.57,4.5-6.34,4.11-9.21C275.16,177.28,277.51,172.36,280.08,167.59z M198.34,103.29c-31.4,0-66.41,10.82-105.03,32.46v-19.73
	c9.05-8.63,24.54-16.2,46.47-22.7c21.36-6.65,40.88-9.97,58.56-9.97V103.29z M247.91,202.93c-2.33,2.33-5.06,3.5-8.17,3.5
	c-3.39,0-6.22-1.17-8.49-3.5c-2.26-2.33-3.39-5.13-3.39-8.38c0-3.25,1.13-6.05,3.39-8.38c2.26-2.33,5.09-3.5,8.49-3.5
	c3.25,0,6.01,1.17,8.28,3.5c2.26,2.33,3.39,5.13,3.39,8.38C251.41,197.8,250.25,200.6,247.91,202.93z"/>
</svg>
