<?xml version="1.0" encoding="utf-8"?>
<!-- Generator: Adobe Illustrator 28.1.0, SVG Export Plug-In . SVG Version: 6.00 Build 0)  -->
<svg version="1.1" id="Layer_1" xmlns="http://www.w3.org/2000/svg" xmlns:xlink="http://www.w3.org/1999/xlink" x="0px" y="0px"
	 viewBox="0 0 1000 1000" style="enable-background:new 0 0 1000 1000;" xml:space="preserve">
<style type="text/css">
	.st0{fill:#969696;}
	.st1{fill:#BC2029;}
	.st2{fill:#231F20;}
	.st3{fill:#FFFFFF;}
</style>
<g>
	<polygon class="st0" points="906.1,700.6 836.6,700.6 841.9,670.5 	"/>
	<path class="st1" d="M906.1,565c-0.8,0.9-1.5,1.9-2.3,2.8c-12.7,14.2-28.4,21.3-47.1,21.3h-82.8h-2.5h-28.7
		c-16.6,0-30.5-5.9-41.7-17.8C689.6,559.5,684,545.7,684,530V311.5h59.2v187.2c0,9.3,3.1,16.8,9.2,22.3c6.1,5.5,13.3,8.3,21.3,8.3
		h65.6c15.7,0,23.6-4.2,23.6-12.7c0-5.9-2.8-14.2-8.3-24.8l-25.5-51h67.5l4.8,10.8c-2.2-18-2.2-36.2-3.2-54.3c0-0.8-0.8-1.9-1.6-2.3
		c-12.6-6.1-8.2-16.1-4.7-25.9c-11.6-5.4-16.5-12.3-11.9-25.4c1.6-4.5-3-14.8-7.4-16.9c-9.7-4.5-14.2-9.9-14.2-20.5
		c0-3.3-3.7-6.5-5.6-9.9c-7.2-12.9-14.7-25.6-21.3-38.8c-6.8-13.7-11.6-28.8-29.3-32.9c-2-0.5-5.2-2.7-5.1-3.9
		c1.5-17.5-12.9-18.3-23.5-22.3c-20.7-7.8-37.9-18.9-46-40.7c-0.9-2.4-3.1-5.8-5-6c-19.3-2-31.5-26.8-54.4-16.8
		c-1.3,0.6-4.3-1.9-6.1-3.3c-13.6-11.1-25.1-26.1-45.8-23.5c-1,0.1-2.6-1.3-3.4-2.4c-6.2-8.1-13.4-5.5-22-4.3
		c-11.3,1.7-24.5,2.7-34.5-1.6c-17.9-7.7-34.6-13.2-53.6-5c-5.2,2.2-11.1,3.8-16.7,4.1c-31.9,1.7-63.9,2.9-95.9,4.6
		c-2.7,0.1-6.8,2.6-7.7,5c-4.3,10.9-11.9,11.2-22.2,10.2c-17-1.6-33.6,5.3-43.5,17.3c-12.6,15.4-27.4,23.4-45.5,26.8
		c-10,1.9-18.2,3.8-21.3,15.6c-1.2,4.3-7.3,8.9-12.1,10.4c-13.1,4.1-23.8,9-18.3,27c-13.5,0.1-23.7,2.7-24.9,17.2
		c-0.9,11.3-5.5,17.8-18.8,18.3c-4.4,0.2-9.1,10.6-12.2,17c-1.7,3.5-0.3,8.4-0.3,12.4c-6.4,2.5-11.7,4.5-18.4,7.1
		c10.5,21.5-4.3,30.8-18.3,38.4c0.8,8,3,14.8,1.6,20.6c-2.1,8.5-6.9,16.2-10.6,24.3c-2.1,6.5-7.3,11.9-9.4,18.4
		c-3.6,11.3-5.2,23.3-7.7,34.9c-2.3,10.6-5.9,21-6.7,31.7c-0.2,2.9,0,5.9,0.5,8.9c33.5,26.7,74.5,48.3,123,64.9
		c56.5,19.5,116.1,29.3,179,29.3c52.2,0,100.6-6.6,145.2-19.7c38.6-11,57.9-21,57.9-29.9c0-7.2-7-14.4-21-21.7
		c-21.2-11.5-53.5-17.4-96.8-17.8v-59.2c64.1-0.8,112.3,11.7,144.6,37.6c22.9,18.7,34.4,39.1,34.4,61.1c0,36.9-31.6,65.4-94.9,85.3
		c-49.7,15.7-106.1,23.6-169.4,23.6c-111.1,0-208.9-25.4-293.5-76.1c1.3,6.8,1.6,13.6,0.1,19.6c-3.9,15.1-7.7,27.7,7.7,36.9
		c-1.6,6.4-3,11.8-4.2,16.7c5,4.1,9.1,7.4,12.2,10c-0.8,7.1-3.8,17.2-1.7,18.3c16.2,9.2,20.7,25.7,27.9,40.6
		c7.6,15.9,8.3,35.7,26.7,45.5c0.9,0.5,0.8,3.7,0.5,5.6c-1.3,8,1.9,12.6,9.4,15.3c2.2,0.8,4.9,4,4.9,6.2c0.7,17.7,13.2,22,27.2,24.5
		c11.1,1.9,17.2,7.6,16.7,19.4c-0.1,3.2,0.6,6.5,1,10.2c6.5,0,12.2,0,18,0c5,8.7,12.1,14.1,18.8,20.1c2.7,2.4,4.4,6,6.7,8.9
		c2,2.6,4.4,7.4,6.2,7.1c12-1.4,17.5,8,25.6,13.4c8.3,5.6,17.9,9.1,26.7,14c16.3,9.1,39.3-1.9,52.4,17.3c0.5,0.7,3.1,0.9,4,0.3
		c11.9-7.5,18.3,1.1,25.3,9.4c11.3-8,20.7-4.9,25.7,1.9c10.3,0,17.6-0.8,24.7,0.2c7.2,1,14.1,4.7,21.4,5.6c8.8,1,18,1.6,26.6-0.1
		c11.3-2.1,22.1-8.2,33.3-0.2c0.4,0.3,1.6-0.8,2.5-1.1c18.5-5.9,36.9-16.1,55.4-16.4c24.1-0.4,41.8-12,61.4-21.6
		c11-5.4,22.1-15.5,32.9-15.3c16,0.3,22.8-6.1,28.1-18.7c4.6-10.9,11.3-18.2,25.2-17.1c4.4,0.4,11-4.8,13.8-9.2
		c8.4-13.3,15.9-26.3,33.4-29.6c3.6-0.7,6-6.9,9.1-10.3c14.4-15.8,18.4-38.5,40.5-50.6c11-6,18.8-27.9,18.5-42.4
		c-0.4-16.1,4.7-25.7,13.8-36.9c6.3-7.7,13.5-19,12.3-27.6C891.3,594.1,898.3,579.3,906.1,565z M660.7,372
		c-94.3,0-199.3,32.5-315.3,97.4v-59.2c27.2-25.9,73.7-48.6,139.5-68.1c64.1-20,122.7-29.9,175.8-29.9V372z M809.5,671.1
		c-7,7-15.2,10.5-24.5,10.5c-10.2,0-18.7-3.5-25.5-10.5c-6.8-7-10.2-15.4-10.2-25.2c0-9.8,3.4-18.1,10.2-25.2
		c6.8-7,15.3-10.5,25.5-10.5c9.8,0,18,3.5,24.8,10.5c6.8,7,10.2,15.4,10.2,25.2C820,655.7,816.5,664.1,809.5,671.1z"/>
	<path class="st2" d="M906.1,700.6v27.3c0,60.1-48.7,108.9-108.9,108.9H446c-37.6,0-68.1-30.5-68.1-68.1c0-18.8,7.6-35.8,19.9-48.2
		c12.3-12.3,29.3-19.9,48.2-19.9H906.1z"/>
	<g>
		<path class="st3" d="M569.3,769.9c1.1,0,1.7,1,1.7,2.9c0,1.9-0.5,3.7-1.4,5.5c-1,2-2.1,3-3.5,3c-0.9,0-1.7-0.1-2.4-0.4
			c-1,7.3-4.4,13.2-10,17.8c-4,3.3-9.5,6-16.4,8.1c-7.4,2.3-15.2,3.4-23.4,3.4c-10.5,0-18.9-2.3-25.3-6.8c-5.6-4-8.4-8.7-8.4-14.1
			c0-8.5,4.3-15.2,13-20c7.4-4.2,16.3-6.3,26.6-6.3c12.1,0,18.2,0.8,18.2,2.5c0,1.2-3.3,2.1-9.8,2.6c-9.8,0.8-17.4,1.8-22.7,3
			c-5.1,1.2-9.4,2.8-12.8,5c-3.6,2.2-5.4,4.3-5.4,6.5c0,3.4,2.7,6.8,8.2,10c6.1,3.6,13.4,5.4,21.9,5.4c10.2,0,19.6-1.7,28.3-5.1
			c8-3.2,12.1-6.3,12.1-9.3c0-0.8-0.5-2.4-1.6-4.7c-1-2.3-1.6-4.6-1.6-6.7c0-2.3,0.6-4.4,1.7-6c0.9-1.4,1.8-2.1,2.5-2.1
			c1,0,2.1,1.1,3.6,3.2C564,768.9,566.2,769.9,569.3,769.9z M553.1,741.1c0,1.8-0.5,3.7-1.5,5.9c-1.2,2.5-2.6,3.7-4.2,3.7
			c-2,0-3.5-0.6-4.8-1.9c-0.9-0.9-1.3-1.8-1.3-2.6c0-0.9,0.6-2.6,1.9-5c1.5-2.7,2.8-4.1,4.1-4.1c1.2,0,2.4,0.5,3.8,1.4
			C552.5,739.6,553.1,740.4,553.1,741.1z"/>
		<path class="st3" d="M613.1,764.1c0,1.7-0.6,3.3-1.8,4.9c-1.2,1.6-2.6,2.5-4.1,3c-6.9,2.1-16.2,4.6-27.7,7.6
			c-2.2,6.9-3.9,10.2-5.1,9.9c-0.6-0.2-1-0.9-1-2.2c0-0.8,0.5-3.2,1.6-7.2c-3.1,0.8-6,1.1-8.7,1.1c-1.2,0-1.7-1-1.7-2.9
			c0-1.8,0.5-3.7,1.5-5.6c1-1.9,2.1-2.8,3.4-2.8c3.8,0,7.2-0.5,10.3-1.6c2.6-5.8,4.6-9.7,5.9-11.8c3.7-6.2,7.3-9.3,10.8-9.3
			c2.5,0,4.5,0.8,5.8,2.4c0.6,0.8,1.5,2.5,2.7,5.3c1,2.4,2.1,4.2,3.3,5.2c0.9,0.2,1.7,0.4,2.6,0.7
			C612.3,761.4,613.1,762.5,613.1,764.1z M597.3,763.5c0-1.4-0.5-2.6-1.5-3.8c-1-1.1-2.2-1.7-3.6-1.7c-1.9,0-4.3,3.2-7.2,9.5
			C593.2,765.5,597.3,764.2,597.3,763.5z M598.3,791.6c0,1.8-0.5,3.7-1.5,5.9c-1.2,2.5-2.6,3.8-4.3,3.8c-2,0-3.5-0.6-4.7-1.9
			c-0.9-0.9-1.4-1.8-1.4-2.6c0-0.9,0.7-2.6,2-5c1.5-2.7,2.8-4,4-4c1.2,0,2.4,0.4,3.8,1.3C597.6,790.1,598.3,790.9,598.3,791.6z"/>
		<path class="st3" d="M650.8,775c0,7.4-3.3,13.3-9.9,17.9c-6,4.1-13,6.2-21.1,6.2c-3.7,0-6.8-0.6-9.2-1.9c-2.1-1-3.1-2.2-3.1-3.4
			c0-1.9,4.5-4,13.6-6.3c3.5-1,7.5-2.4,11.8-4.4c4.9-2.3,8.5-4.5,10.8-6.6c0.6-0.6,1.8-1.8,3.3-3.6c0.7-0.7,1.3-1.1,1.9-1.2
			C650.1,771.6,650.8,772.7,650.8,775z"/>
		<path class="st3" d="M695,776c-3.4,15.4-13.9,23.1-31.5,23.1c-10.4,0-15.6-1-15.6-3c0-2.1,4.2-4.1,12.7-6
			c17.9-4.1,26.9-7.6,26.9-10.6c0-1-0.7-1.4-2-1.4c-3.2,0-4.8,0-5-0.1c-2.9-0.7-4.4-2.5-4.4-5.4c0-3.1,1-6.1,2.9-9.1
			c2.1-3.3,4.5-5,7.2-5c3,0,5.3,1.5,7,4.5c1.4,2.5,2.1,5.6,2.1,9.1C695.4,773.5,695.3,774.8,695,776z"/>
		<path class="st3" d="M730.6,778.8c1.1,0,1.7,1,1.7,2.9c0,1.9-0.5,3.7-1.4,5.5c-1,2-2.2,3-3.5,3c-3.5,0-5.7-0.7-6.8-2
			c-0.9-1.2-1.6-3.8-1.9-8c-1.1-10.1-2.3-23.1-3.6-39c-0.1-2.3,0.5-4.9,1.7-7.7c1.3-2.8,2.4-4.2,3.4-4.2c1.3,0,2.3,4.1,3,12.3
			c0.8,8.2,1.7,18.9,2.9,32c0.2,2.1,0.5,3.4,0.9,4C727.7,778.4,728.8,778.8,730.6,778.8z"/>
		<path class="st3" d="M756.8,778.8c1.1,0,1.7,1,1.7,2.9c0,1.9-0.5,3.7-1.4,5.5c-1,2-2.1,3-3.5,3c-5.2,0-8.1-2-8.8-6
			c-4.7,4-10.4,6-17.3,6c-1.2,0-1.7-1-1.7-3c0-1.8,0.5-3.6,1.4-5.4c1-1.9,2.2-2.9,3.5-2.9c3.7,0,8-1.2,13-3.6c1-0.5,2.4-1.6,4.3-3.4
			c1.7-1.5,2.7-2.3,3.2-2.3c1.2,0,1.6,0.9,1.1,2.8c-0.6,2.6-0.6,4.3,0.1,5.1C753.1,778.4,754.6,778.8,756.8,778.8z M752.6,746.5
			c-2.5,2.1-6.2,2.9-11.1,2.5c-1.6-0.1-3.4-0.6-5.4-1.5c-2.3-1-3.5-1.9-3.7-2.8c-0.2-1,0.3-1.6,1.4-2c1.5-0.3,3-0.6,4.5-0.9
			c4.5-1,8.7-2.6,12.7-4.9c0.9-0.5,1.6-0.8,2.2-0.8c1.4,0,2,1.1,2,3.2C755.2,742.8,754.3,745.1,752.6,746.5z"/>
		<path class="st3" d="M784.5,778.8c1.2,0,1.7,1,1.7,2.9c0,1.9-0.5,3.7-1.4,5.5c-1,2-2.2,3-3.5,3c-3.4,0-5.8-0.9-7-2.8
			c-0.6-0.9-1.1-2.6-1.4-5.2c-4.5,5.3-10.9,8-19.3,8c-1.2,0-1.7-1-1.7-3c0-1.8,0.5-3.6,1.4-5.4c1-1.9,2.2-2.9,3.5-2.9
			c5.1,0,9.5-1.1,13.3-3.2c1.3-0.7,1.9-1.9,1.7-3.5c-0.3-2.7-0.5-5.1-0.6-7.4c-0.1-2.3,0.5-4.9,1.8-7.7s2.4-4.2,3.4-4.2
			c1.2,0,2.2,4.1,3,12.3c0.2,2.3,0.5,5.1,0.8,8.4c0.2,2.1,0.5,3.4,0.9,4C781.6,778.4,782.7,778.8,784.5,778.8z M779.7,813.9
			c-2.5,2.1-6.2,2.9-11.2,2.5c-1.6-0.1-3.4-0.6-5.4-1.5c-2.3-1-3.5-1.9-3.6-2.8c-0.2-1,0.3-1.7,1.4-2c1.5-0.3,3-0.6,4.5-0.9
			c4.5-1,8.7-2.6,12.7-4.9c0.9-0.5,1.6-0.7,2.2-0.7c1.4,0,2,1.1,2,3.2C782.3,810.1,781.4,812.5,779.7,813.9z"/>
		<path class="st3" d="M803.3,775.9c-0.5,4.3-3.2,7.8-7.9,10.6c-4.3,2.4-8.9,3.6-14,3.6c-1.2,0-1.7-1-1.7-2.9c0-1.8,0.5-3.7,1.5-5.6
			c1-1.9,2.1-2.8,3.4-2.8c3.7,0,7-0.6,9.7-1.9c1.8-0.8,3.6-1.9,5.2-3.4c1.4-1.2,2.2-1.8,2.4-1.8
			C803.1,771.8,803.6,773.2,803.3,775.9z M798.4,808.8c0,1.8-0.5,3.7-1.5,5.9c-1.2,2.5-2.6,3.8-4.2,3.8c-2,0-3.6-0.6-4.8-1.9
			c-0.9-1-1.4-1.8-1.4-2.6c0-1,0.7-2.6,2-5c1.5-2.7,2.8-4,4-4c1.2,0,2.4,0.4,3.8,1.3C797.7,807.2,798.4,808,798.4,808.8z"/>
		<path class="st3" d="M754,756.8c0,1.8-0.5,3.7-1.5,5.9c-1.2,2.5-2.6,3.8-4.2,3.8c-2,0-3.6-0.6-4.8-1.9c-0.9-1-1.4-1.8-1.4-2.6
			c0-1,0.7-2.6,2-5c1.5-2.7,2.8-4,4-4c1.2,0,2.4,0.4,3.8,1.3C753.3,755.2,754,756,754,756.8z"/>
	</g>
</g>
</svg>
