<?xml version="1.0" encoding="UTF-8"?>
<svg id="Layer_1" xmlns="http://www.w3.org/2000/svg" version="1.1" viewBox="0 0 289.6 292.3">
  <!-- Generator: Adobe Illustrator 29.0.0, SVG Export Plug-In . SVG Version: 2.1.0 Build 186)  -->
  <defs>
    <style>
      .st0 {
        fill: #bc2129;
      }

      .st1 {
        fill: #fff;
      }

      .st2 {
        fill: #bc2029;
      }
    </style>
  </defs>
  <g id="CG0cK0">
    <g>
      <path class="st2" d="M6.7,141.8c-.8,1.8-1.1,3.4-1.1,4.9v-13.3c.3.2.6.5.8.7.4,2.7,1.1,5.5.2,7.7Z"/>
      <path class="st0" d="M280.8,153.2c3.2,4.7,2.9,9.5.1,14.7,0,0,0,0,0,.1-2.6,4.8-4.9,9.8-4.1,15.9.4,2.9-2,6.7-4.2,9.3-3.1,3.8-4.8,7-4.7,12.5.1,4.9-2.5,12.3-6.2,14.3-7.5,4.1-8.8,11.7-13.7,17.1-1.1,1.2-1.9,3.3-3.1,3.5-5.9,1.1-8.5,5.5-11.3,10-.9,1.5-3.2,3.2-4.6,3.1-4.7-.4-7,2.1-8.5,5.8-1.8,4.3-4.1,6.4-9.5,6.3-3.7,0-7.4,3.3-11.1,5.2-6.6,3.2-12.6,7.2-20.7,7.3-6.3,0-12.5,3.6-18.7,5.6-.3,0-.7.5-.9.4-3.8-2.7-7.5-.7-11.3,0-2.9.5-6,.4-9,0-2.5-.3-4.8-1.5-7.2-1.9-2.4-.3-4.9,0-8.4,0-1.7-2.3-4.9-3.4-8.7-.6-2.3-2.8-4.5-5.7-8.5-3.2-.3.2-1.2.1-1.4-.1-4.4-6.5-12.2-2.8-17.7-5.8-3-1.7-6.2-2.9-9-4.8-2.7-1.8-4.6-5-8.7-4.5-.6,0-1.4-1.5-2.1-2.4-.8-1-1.4-2.2-2.3-3-2.3-2-4.7-3.9-6.4-6.8h-6.1c-.1-1.3-.4-2.4-.3-3.4.2-4-1.9-5.9-5.6-6.6-4.7-.8-9-2.3-9.2-8.3,0-.7-.9-1.8-1.7-2.1-2.5-.9-3.6-2.5-3.2-5.2,0-.6.1-1.7-.2-1.9-6.2-3.3-6.4-10-9-15.4-2.4-5-3.9-10.6-9.4-13.7-.7-.4.3-3.8.6-6.2-1.1-.9-2.4-2-4.1-3.4.4-1.7.9-3.5,1.4-5.7-5.2-3.1-3.9-7.4-2.6-12.5.5-2,.4-4.3,0-6.6-.3-1.7-.9-3.5-1.5-5-1.1-3-2.3-5.6-2.3-8.6s.3-3.1,1.1-4.9c.9-2.2.2-5-.2-7.7-.1-1-.2-2-.2-3,.3-3.6,1.5-7.1,2.3-10.7.9-3.9,1.4-8,2.6-11.8.7-2.2,2.5-4,3.2-6.2,1.2-2.7,2.9-5.4,3.6-8.2.5-2-.3-4.3-.5-7,4.7-2.6,9.7-5.7,6.2-13,2.3-.9,4-1.6,6.2-2.4,0-1.3-.5-3,.1-4.2,1.1-2.2,2.6-5.7,4.1-5.7,4.5-.2,6.1-2.4,6.4-6.2.4-4.9,3.8-5.8,8.4-5.8-1.9-6.1,1.8-7.7,6.2-9.1,1.6-.5,3.7-2.1,4.1-3.5,1.1-4,3.8-4.6,7.2-5.3,6.1-1.2,11.1-3.9,15.4-9.1,3.3-4.1,9-6.4,14.7-5.9,3.5.3,6,.2,7.5-3.4.3-.8,1.7-1.6,2.6-1.7,10.8-.6,21.6-1,32.4-1.6,1.9-.1,3.9-.6,5.6-1.4,6.4-2.8,12-.9,18.1,1.7,3.4,1.4,7.8,1.1,11.7.5,2.9-.4,5.4-1.3,7.4,1.5.3.4.8.9,1.2.8,7-.9,10.9,4.2,15.5,8,.6.5,1.6,1.3,2.1,1.1,7.8-3.4,11.9,5,18.4,5.7.6,0,1.4,1.2,1.7,2,2.8,7.4,8.6,11.1,15.6,13.8,3.6,1.3,8.5,1.6,7.9,7.6,0,.4,1.1,1.2,1.7,1.3,6,1.4,7.6,6.5,9.9,11.1,2.2,4.5,4.8,8.8,7.2,13.1.6,1.1,1.9,2.2,1.9,3.3,0,3.6,1.5,5.4,4.8,7,1.5.7,3,4.2,2.5,5.7-1.5,4.4.1,6.8,4,8.6-1.2,3.3-2.7,6.7,1.6,8.7.3.1.5.5.5.8.3,6.1.4,12.3,1.1,18.4h0c.5,3.9,2,7.6,3,11.4.5,0,1-.2,1.5-.3-1,1.3-2,2.6-2.8,4-1.6,2.7-2.5,5.3-.3,8.5Z"/>
    </g>
  </g>
  <g>
    <path class="st1" d="M198,149.2c0,12.5-10.7,22.1-32.1,28.9-16.8,5.3-35.9,8-57.3,8-37.6,0-70.6-8.6-99.2-25.7-.3-1.7-.9-3.5-1.5-5-1.1-3-2.3-5.6-2.3-8.6s.3-3.1,1.1-4.9c.9-2.2.2-5-.2-7.7,11.3,9,25.2,16.3,41.6,21.9,19.1,6.6,39.3,9.9,60.5,9.9s34-2.2,49.1-6.7c13.1-3.7,19.6-7.1,19.6-10.1s-2.4-4.9-7.1-7.3c-7.2-3.9-18.1-5.9-32.7-6v-20c21.7-.3,38,3.9,48.9,12.7,7.7,6.3,11.6,13.2,11.6,20.7Z"/>
    <path class="st1" d="M91.4,115.6v20c39.2-22,74.7-32.9,106.6-32.9v-20.2c-17.9,0-37.8,3.4-59.4,10.1-22.3,6.6-38,14.3-47.2,23Z"/>
    <path class="st1" d="M280.8,153.2c3.2,4.7,2.9,9.5.1,14.7,0,0,0,0,0,.1-.2.3-.5.6-.7.8-4.3,4.8-9.6,7.2-15.9,7.2h-38.5c-5.6,0-10.3-2-14.1-6-3.8-4-5.7-8.7-5.7-14v-73.9h20v63.3c0,3.2,1,5.7,3.1,7.5,2.1,1.9,4.5,2.8,7.2,2.8h22.2c5.3,0,8-1.4,8-4.3s-.9-4.8-2.8-8.4l-8.6-17.2h22.8l1.6,3.7h0c.5,3.9,2,7.6,3,11.4.5,0,1-.2,1.5-.3-1,1.3-2,2.6-2.8,4-1.6,2.7-2.5,5.3-.3,8.5Z"/>
    <path class="st1" d="M240,183.2c-3.4,0-6.3,1.2-8.6,3.6-2.3,2.4-3.4,5.2-3.4,8.5s1.1,6.1,3.4,8.5c2.3,2.4,5.2,3.6,8.6,3.6s5.9-1.2,8.3-3.6c2.4-2.4,3.6-5.2,3.6-8.5s-1.1-6.1-3.4-8.5c-2.3-2.4-5.1-3.6-8.4-3.6Z"/>
  </g>
</svg>